<svg width="3840" height="586" viewBox="0 0 3840 586" fill="none" xmlns="http://www.w3.org/2000/svg">
<rect x="2560" width="1280" height="585.532" fill="black"/>
<ellipse cx="2671.12" cy="75.875" rx="96.9931" ry="59.2324" fill="white"/>
<ellipse cx="2879.92" cy="75.875" rx="96.9931" ry="59.2324" fill="white"/>
<ellipse cx="2732.89" cy="94.5395" rx="33.8865" ry="35.5395" fill="black"/>
<ellipse cx="2943.16" cy="94.5395" rx="33.8865" ry="35.5395" fill="black"/>
<ellipse cx="3096.12" cy="75.875" rx="96.9931" ry="59.2324" fill="white"/>
<ellipse cx="3304.91" cy="75.875" rx="96.9931" ry="59.2324" fill="white"/>
<ellipse cx="3151.89" cy="94.5395" rx="33.8865" ry="35.5395" fill="black"/>
<ellipse cx="3362.16" cy="94.5395" rx="33.8865" ry="35.5395" fill="black"/>
<ellipse cx="2671.12" cy="218.098" rx="96.9931" ry="59.2324" fill="white"/>
<ellipse cx="2879.92" cy="218.098" rx="96.9931" ry="59.2324" fill="white"/>
<ellipse cx="2719.89" cy="228.539" rx="33.8865" ry="35.5395" fill="black"/>
<ellipse cx="2930.16" cy="228.981" rx="33.8865" ry="35.5395" fill="black"/>
<ellipse cx="3096.12" cy="218.098" rx="96.9931" ry="59.2324" fill="white"/>
<ellipse cx="3304.91" cy="218.098" rx="96.9931" ry="59.2324" fill="white"/>
<ellipse cx="3127.89" cy="229.539" rx="33.8865" ry="35.5395" fill="black"/>
<ellipse cx="3338.16" cy="229.539" rx="33.8865" ry="35.5395" fill="black"/>
<ellipse cx="2671.12" cy="361.833" rx="96.9931" ry="59.2324" fill="white"/>
<ellipse cx="2879.92" cy="361.833" rx="96.9931" ry="59.2324" fill="white"/>
<ellipse cx="2719.69" cy="361.833" rx="33.8865" ry="35.5395" fill="black"/>
<ellipse cx="2929.97" cy="361.833" rx="33.8865" ry="35.5395" fill="black"/>
<ellipse cx="3096.12" cy="361.833" rx="96.9931" ry="59.2324" fill="white"/>
<ellipse cx="3304.91" cy="361.833" rx="96.9931" ry="59.2324" fill="white"/>
<ellipse cx="3162.68" cy="361.833" rx="33.8865" ry="35.5395" fill="black"/>
<ellipse cx="3372.96" cy="361.833" rx="33.8865" ry="35.5395" fill="black"/>
<ellipse cx="2671.12" cy="511.62" rx="96.9931" ry="59.2324" fill="white"/>
<ellipse cx="2879.92" cy="511.62" rx="96.9931" ry="59.2324" fill="white"/>
<ellipse cx="2723.69" cy="511.621" rx="33.8865" ry="35.5395" fill="black"/>
<ellipse cx="2933.97" cy="511.621" rx="33.8865" ry="35.5395" fill="black"/>
<ellipse cx="3096.12" cy="511.62" rx="96.9931" ry="59.2324" fill="white"/>
<ellipse cx="3304.91" cy="511.62" rx="96.9931" ry="59.2324" fill="white"/>
<ellipse cx="3160.68" cy="511.621" rx="33.8865" ry="35.5395" fill="black"/>
<ellipse cx="3370.96" cy="511.621" rx="33.8865" ry="35.5395" fill="black"/>
<ellipse cx="3521.11" cy="75.875" rx="96.9931" ry="59.2324" fill="white"/>
<ellipse cx="3729.9" cy="75.875" rx="96.9931" ry="59.2324" fill="white"/>
<ellipse cx="3521.89" cy="110.539" rx="33.8865" ry="35.5395" fill="black"/>
<ellipse cx="3732.16" cy="110.539" rx="33.8865" ry="35.5395" fill="black"/>
<ellipse cx="3521.43" cy="218.098" rx="96.9931" ry="59.2324" fill="white"/>
<ellipse cx="3730.22" cy="218.098" rx="96.9931" ry="59.2324" fill="white"/>
<ellipse cx="3522" cy="259.098" rx="33.8865" ry="35.5395" fill="black"/>
<ellipse cx="3732.27" cy="259.098" rx="33.8865" ry="35.5395" fill="black"/>
<path d="M3578.1 464.301L3605.18 289.582L3609.39 420.817L3693 280.663L3654.79 470.031L3655.8 516.226L3669.68 582.128L3608.52 492.163L3469.83 492.163L3578.1 464.301Z" fill="#DD0301"/>
<path d="M3595.71 426.445L3779.47 386.76L3650.79 437.847L3811.77 473.57L3619.2 494.977L3575.84 513.513L3513.58 548.395L3579.63 462.88L3491.59 291.345L3595.71 426.445Z" fill="#DD0301"/>
<path d="M3636.4 460.227C3632.78 481.698 3621.83 497.683 3611.93 495.929C3602.03 494.176 3596.93 475.348 3600.54 453.877C3604.16 432.406 3615.12 416.421 3625.02 418.175C3630.1 419.075 3593.52 495.587 3626.54 442.357C3636.07 443.341 3638.16 449.776 3636.4 460.227Z" fill="black"/>
<ellipse cx="1407.89" cy="511.539" rx="33.8865" ry="35.5395" fill="black"/>
<ellipse cx="1618.16" cy="511.539" rx="33.8865" ry="35.5395" fill="black"/>
<ellipse cx="1846.68" cy="511.621" rx="33.8865" ry="35.5395" fill="black"/>
<ellipse cx="2056.96" cy="511.621" rx="33.8865" ry="35.5395" fill="black"/>
<rect x="1280" width="1280" height="585.532" fill="black"/>
<ellipse cx="1391.12" cy="75.875" rx="96.9931" ry="59.2324" fill="white"/>
<ellipse cx="1599.92" cy="75.875" rx="96.9931" ry="59.2324" fill="white"/>
<ellipse cx="1422.89" cy="85.5395" rx="33.8865" ry="35.5395" fill="black"/>
<ellipse cx="1633.16" cy="85.5395" rx="33.8865" ry="35.5395" fill="black"/>
<ellipse cx="1816.12" cy="75.875" rx="96.9931" ry="59.2324" fill="white"/>
<ellipse cx="2024.91" cy="75.875" rx="96.9931" ry="59.2324" fill="white"/>
<ellipse cx="1837.89" cy="85.5395" rx="33.8865" ry="35.5395" fill="black"/>
<ellipse cx="2048.16" cy="85.5395" rx="33.8865" ry="35.5395" fill="black"/>
<ellipse cx="1391.12" cy="218.098" rx="96.9931" ry="59.2324" fill="white"/>
<ellipse cx="1599.92" cy="218.098" rx="96.9931" ry="59.2324" fill="white"/>
<ellipse cx="1411.08" cy="232.539" rx="33.8865" ry="35.5395" fill="black"/>
<ellipse cx="1621.36" cy="232.981" rx="33.8865" ry="35.5395" fill="black"/>
<ellipse cx="1816.12" cy="218.098" rx="96.9931" ry="59.2324" fill="white"/>
<ellipse cx="2024.91" cy="218.098" rx="96.9931" ry="59.2324" fill="white"/>
<ellipse cx="1837.89" cy="227.539" rx="33.8865" ry="35.5395" fill="black"/>
<ellipse cx="2048.16" cy="227.539" rx="33.8865" ry="35.5395" fill="black"/>
<ellipse cx="1391.12" cy="361.833" rx="96.9931" ry="59.2324" fill="white"/>
<ellipse cx="1599.92" cy="361.833" rx="96.9931" ry="59.2324" fill="white"/>
<ellipse cx="1410.89" cy="365.833" rx="33.8865" ry="35.5395" fill="black"/>
<ellipse cx="1621.16" cy="365.833" rx="33.8865" ry="35.5395" fill="black"/>
<ellipse cx="1816.12" cy="361.833" rx="96.9931" ry="59.2324" fill="white"/>
<ellipse cx="2024.91" cy="361.833" rx="96.9931" ry="59.2324" fill="white"/>
<ellipse cx="1854.68" cy="361.833" rx="33.8865" ry="35.5395" fill="black"/>
<ellipse cx="2064.96" cy="361.833" rx="33.8865" ry="35.5395" fill="black"/>
<ellipse cx="1391.12" cy="511.62" rx="96.9931" ry="59.2324" fill="white"/>
<ellipse cx="1599.92" cy="511.62" rx="96.9931" ry="59.2324" fill="white"/>
<ellipse cx="1416.89" cy="511.539" rx="33.8865" ry="35.5395" fill="black"/>
<ellipse cx="1627.16" cy="511.539" rx="33.8865" ry="35.5395" fill="black"/>
<ellipse cx="1816.12" cy="511.62" rx="96.9931" ry="59.2324" fill="white"/>
<ellipse cx="2024.91" cy="511.62" rx="96.9931" ry="59.2324" fill="white"/>
<ellipse cx="1855.68" cy="511.621" rx="33.8865" ry="35.5395" fill="black"/>
<ellipse cx="2065.96" cy="511.621" rx="33.8865" ry="35.5395" fill="black"/>
<ellipse cx="2241.11" cy="75.875" rx="96.9931" ry="59.2324" fill="white"/>
<ellipse cx="2449.9" cy="75.875" rx="96.9931" ry="59.2324" fill="white"/>
<ellipse cx="2241.89" cy="95.5395" rx="33.8865" ry="35.5395" fill="black"/>
<ellipse cx="2452.16" cy="95.5395" rx="33.8865" ry="35.5395" fill="black"/>
<ellipse cx="2241.43" cy="218.098" rx="96.9931" ry="59.2324" fill="white"/>
<ellipse cx="2450.22" cy="218.098" rx="96.9931" ry="59.2324" fill="white"/>
<ellipse cx="2241.89" cy="237.539" rx="33.8865" ry="35.5395" fill="black"/>
<ellipse cx="2452.16" cy="237.539" rx="33.8865" ry="35.5395" fill="black"/>
<path d="M2298.1 464.301L2325.18 289.582L2329.39 420.817L2413 280.663L2374.79 470.031L2375.8 516.226L2389.68 582.128L2328.52 492.163L2189.83 492.163L2298.1 464.301Z" fill="#E04240"/>
<path d="M2315.71 426.445L2499.47 386.76L2370.79 437.847L2531.77 473.57L2339.2 494.977L2295.84 513.513L2233.58 548.395L2299.63 462.88L2211.59 291.345L2315.71 426.445Z" fill="#E04240"/>
<path d="M2360.49 460.227C2356.69 481.698 2345.2 497.683 2334.81 495.929C2324.42 494.176 2319.07 475.348 2322.87 453.877C2326.66 432.406 2338.16 416.421 2348.54 418.175C2353.88 419.075 2315.5 495.587 2350.14 442.357C2360.14 443.341 2362.33 449.776 2360.49 460.227Z" fill="black"/>
<ellipse cx="96.6911" cy="511.621" rx="33.8865" ry="35.5395" fill="black"/>
<ellipse cx="306.967" cy="511.621" rx="33.8865" ry="35.5395" fill="black"/>
<ellipse cx="521.683" cy="511.621" rx="33.8865" ry="35.5395" fill="black"/>
<ellipse cx="731.959" cy="511.621" rx="33.8865" ry="35.5395" fill="black"/>
<rect width="1280" height="585.532" fill="black"/>
<ellipse cx="111.123" cy="75.875" rx="96.9931" ry="59.2324" fill="white"/>
<ellipse cx="319.918" cy="75.875" rx="96.9931" ry="59.2324" fill="white"/>
<ellipse cx="111.691" cy="75.8754" rx="33.8865" ry="35.5395" fill="black"/>
<ellipse cx="321.967" cy="75.8754" rx="33.8865" ry="35.5395" fill="black"/>
<ellipse cx="536.115" cy="75.875" rx="96.9931" ry="59.2324" fill="white"/>
<ellipse cx="744.91" cy="75.875" rx="96.9931" ry="59.2324" fill="white"/>
<ellipse cx="536.683" cy="75.8754" rx="33.8865" ry="35.5395" fill="black"/>
<ellipse cx="746.959" cy="75.8754" rx="33.8865" ry="35.5395" fill="black"/>
<ellipse cx="111.123" cy="218.098" rx="96.9931" ry="59.2324" fill="white"/>
<ellipse cx="319.918" cy="218.098" rx="96.9931" ry="59.2324" fill="white"/>
<ellipse cx="111.691" cy="218.098" rx="33.8865" ry="35.5395" fill="black"/>
<ellipse cx="321.967" cy="218.098" rx="33.8865" ry="35.5395" fill="black"/>
<ellipse cx="536.115" cy="218.098" rx="96.9931" ry="59.2324" fill="white"/>
<ellipse cx="744.91" cy="218.098" rx="96.9931" ry="59.2324" fill="white"/>
<ellipse cx="536.683" cy="218.098" rx="33.8865" ry="35.5395" fill="black"/>
<ellipse cx="746.959" cy="218.098" rx="33.8865" ry="35.5395" fill="black"/>
<ellipse cx="111.123" cy="361.833" rx="96.9931" ry="59.2324" fill="white"/>
<ellipse cx="319.918" cy="361.833" rx="96.9931" ry="59.2324" fill="white"/>
<ellipse cx="111.691" cy="361.833" rx="33.8865" ry="35.5395" fill="black"/>
<ellipse cx="321.967" cy="361.833" rx="33.8865" ry="35.5395" fill="black"/>
<ellipse cx="536.115" cy="361.833" rx="96.9931" ry="59.2324" fill="white"/>
<ellipse cx="744.91" cy="361.833" rx="96.9931" ry="59.2324" fill="white"/>
<ellipse cx="536.683" cy="361.833" rx="33.8865" ry="35.5395" fill="black"/>
<ellipse cx="746.959" cy="361.833" rx="33.8865" ry="35.5395" fill="black"/>
<ellipse cx="111.123" cy="511.62" rx="96.9931" ry="59.2324" fill="white"/>
<ellipse cx="319.918" cy="511.62" rx="96.9931" ry="59.2324" fill="white"/>
<ellipse cx="111.691" cy="511.621" rx="33.8865" ry="35.5395" fill="black"/>
<ellipse cx="321.967" cy="511.621" rx="33.8865" ry="35.5395" fill="black"/>
<ellipse cx="536.115" cy="511.62" rx="96.9931" ry="59.2324" fill="white"/>
<ellipse cx="744.91" cy="511.62" rx="96.9931" ry="59.2324" fill="white"/>
<ellipse cx="536.683" cy="511.621" rx="33.8865" ry="35.5395" fill="black"/>
<ellipse cx="746.959" cy="511.621" rx="33.8865" ry="35.5395" fill="black"/>
<ellipse cx="961.108" cy="75.875" rx="96.9931" ry="59.2324" fill="white"/>
<ellipse cx="1169.9" cy="75.875" rx="96.9931" ry="59.2324" fill="white"/>
<ellipse cx="961.677" cy="75.8754" rx="33.8865" ry="35.5395" fill="black"/>
<ellipse cx="1171.95" cy="75.8754" rx="33.8865" ry="35.5395" fill="black"/>
<ellipse cx="961.431" cy="218.098" rx="96.9931" ry="59.2324" fill="white"/>
<ellipse cx="1170.22" cy="218.098" rx="96.9931" ry="59.2324" fill="white"/>
<ellipse cx="961.999" cy="218.098" rx="33.8865" ry="35.5395" fill="black"/>
<ellipse cx="1172.27" cy="218.098" rx="33.8865" ry="35.5395" fill="black"/>
<path d="M1018.1 464.301L1045.18 289.582L1049.39 420.817L1133 280.663L1094.79 470.031L1095.8 516.226L1109.68 582.128L1048.52 492.163L909.829 492.163L1018.1 464.301Z" fill="white"/>
<path d="M1035.71 426.445L1219.47 386.76L1090.79 437.847L1251.77 473.57L1059.2 494.977L1015.84 513.513L953.58 548.395L1019.63 462.88L931.589 291.345L1035.71 426.445Z" fill="white"/>
<path d="M1079.49 460.227C1075.69 481.698 1064.2 497.683 1053.81 495.929C1043.42 494.176 1038.07 475.348 1041.87 453.877C1045.66 432.406 1057.16 416.421 1067.54 418.175C1072.88 419.075 1034.5 495.587 1069.14 442.357C1079.14 443.341 1081.33 449.776 1079.49 460.227Z" fill="black"/>
</svg>
